<svg width="90" height="90" viewBox="0 0 90 90" fill="none" xmlns="http://www.w3.org/2000/svg">
<g clip-path="url(#clip0_71_187)">
<path d="M16.1247 16.4908C10.9382 21.8781 11.9997 27.6008 11.9997 44.9863C11.9997 59.4238 9.48069 73.8971 22.6642 77.3043C26.7809 78.3631 63.2569 78.3631 67.3682 77.2988C72.8572 75.8826 77.3232 71.4303 77.9337 63.6671C78.0189 62.5836 78.0189 27.4083 77.9309 26.3028C77.2819 18.0336 72.1917 13.2678 65.4844 12.3026C63.9472 12.0798 63.6392 12.0138 55.7522 12.0001C27.7764 12.0138 21.6439 10.7681 16.1247 16.4908V16.4908Z" fill="url(#paint0_linear_71_187)"/>
<path d="M44.9945 20.6324C35.0092 20.6324 25.5272 19.7442 21.9055 29.0392C20.4095 32.8782 20.6267 37.8639 20.6267 45.0029C20.6267 51.2674 20.426 57.1552 21.9055 60.9639C25.519 70.2644 35.078 69.3734 44.989 69.3734C54.5507 69.3734 64.4095 70.3689 68.0752 60.9639C69.574 57.0864 69.354 52.1749 69.354 45.0029C69.354 35.4824 69.8792 29.3362 65.262 24.7217C60.587 20.0467 54.2647 20.6324 44.9835 20.6324H44.9945ZM42.811 25.0242C63.6395 24.9912 66.2905 22.6757 64.8275 54.8424C64.3077 66.2192 55.6452 64.9707 44.9972 64.9707C25.5822 64.9707 25.024 64.4152 25.024 44.9919C25.024 25.3432 26.564 25.0352 42.811 25.0187V25.0242ZM58.002 29.0694C56.3877 29.0694 55.0787 30.3784 55.0787 31.9927C55.0787 33.6069 56.3877 34.9159 58.002 34.9159C59.6162 34.9159 60.9252 33.6069 60.9252 31.9927C60.9252 30.3784 59.6162 29.0694 58.002 29.0694V29.0694ZM44.9945 32.4877C38.0837 32.4877 32.482 38.0922 32.482 45.0029C32.482 51.9137 38.0837 57.5154 44.9945 57.5154C51.9052 57.5154 57.5042 51.9137 57.5042 45.0029C57.5042 38.0922 51.9052 32.4877 44.9945 32.4877V32.4877ZM44.9945 36.8794C55.7332 36.8794 55.747 53.1264 44.9945 53.1264C34.2585 53.1264 34.242 36.8794 44.9945 36.8794Z" fill="white"/>
</g>
<defs>
<linearGradient id="paint0_linear_71_187" x1="16.2512" y1="73.7846" x2="77.5913" y2="20.6955" gradientUnits="userSpaceOnUse">
<stop stop-color="#FFDD55"/>
<stop offset="0.5" stop-color="#FF543E"/>
<stop offset="1" stop-color="#C837AB"/>
</linearGradient>
<clipPath id="clip0_71_187">
<rect width="66" height="66" fill="white" transform="translate(12 12)"/>
</clipPath>
</defs>
</svg>
